<svg xmlns="http://www.w3.org/2000/svg" viewBox="0 0 128 128"><g data-name="Logo Play Youtube"><g data-name="Dashed Line"><path fill="none" d="M106,25.81H22a14,14,0,0,0-14,14V88a14,14,0,0,0,14,14h84a14,14,0,0,0,14-14V39.81A14,14,0,0,0,106,25.81ZM77.31,71.68l-3.42,2a2,2,0,0,1-2-3.48l3.42-2a4.94,4.94,0,0,0,0-8.6L57.73,49.51a5,5,0,0,0-5.07,0,4.92,4.92,0,0,0-2.49,4.29V74a4.89,4.89,0,0,0,2.48,4.29,5,5,0,0,0,5.07,0l3.42-2a2,2,0,0,1,2,3.48l-3.43,2a9,9,0,0,1-9.06,0A8.88,8.88,0,0,1,46.16,74V53.8a8.89,8.89,0,0,1,4.49-7.74,9,9,0,0,1,9.06,0l17.61,10.1a8.94,8.94,0,0,1,0,15.54Z"/><path fill="#230e45" d="M106,21.81H22a18,18,0,0,0-18,18V88a18,18,0,0,0,18,18h84a18,18,0,0,0,18-18V39.81A18,18,0,0,0,106,21.81ZM120,88a14,14,0,0,1-14,14H22A14,14,0,0,1,8,88V39.81a14,14,0,0,1,14-14h84a14,14,0,0,1,14,14Z"/><path fill="#230e45" d="M77.33,56.14,59.72,46a9,9,0,0,0-9.06,0,8.89,8.89,0,0,0-4.49,7.74V74a8.88,8.88,0,0,0,4.47,7.75,9,9,0,0,0,9.06,0l3.43-2a2,2,0,0,0-2-3.48l-3.42,2a5,5,0,0,1-5.07,0A4.89,4.89,0,0,1,50.16,74V53.81a4.92,4.92,0,0,1,2.49-4.29,5,5,0,0,1,5.07,0l17.61,10.1a4.94,4.94,0,0,1,0,8.6l-3.42,2a2,2,0,0,0,2,3.48l3.42-2a8.94,8.94,0,0,0,0-15.54Z"/></g></g></svg>